<svg width="200" height="103" viewBox="0 0 200 103" fill="none" xmlns="http://www.w3.org/2000/svg">
<path d="M94.144 4.864C105.28 6.784 106.944 17.024 106.048 24.32C102.72 51.072 70.464 87.936 46.4 102.016C45.76 101.888 45.376 101.504 45.376 100.864C46.912 99.968 48.576 98.944 50.112 97.792C46.4 96.128 43.584 92.16 41.664 86.656C42.688 86.656 47.936 71.68 52.8 54.528C40.384 73.984 21.184 92.8 5.44 102.016C4.8 101.888 4.416 101.504 4.416 100.864C5.952 99.968 7.616 98.944 9.152 97.792C5.44 96.128 2.624 92.16 0.704 86.656L24.256 12.544L7.616 19.84L7.744 18.432L36.16 5.376C37.312 6.144 37.952 7.424 37.696 9.34399C33.472 33.408 18.88 68.736 12.864 92.672C12.864 93.44 13.376 94.08 14.016 94.336C29.376 82.688 45.504 65.152 54.72 47.36C58.56 33.408 61.632 19.2 61.632 11.648L74.56 5.376C75.712 6.144 75.968 7.936 76.096 9.34399C71.872 33.408 59.84 68.736 53.824 92.672C53.824 93.44 54.336 94.08 54.976 94.336C75.712 78.592 97.856 52.096 102.72 28.672C100.032 23.04 91.328 14.336 84.672 15.232C86.848 11.52 91.584 6.784 94.144 4.864ZM96.723 78.08C97.363 56.192 120.019 33.92 138.195 35.328C139.603 35.328 144.979 38.784 144.979 43.136C144.979 47.744 138.323 55.68 132.819 59.392C128.979 62.08 111.571 71.808 109.267 71.808C109.139 73.472 109.139 75.008 109.139 76.416C109.139 86.528 111.571 92.8 117.971 93.568C123.731 90.24 129.235 86.784 133.203 84.224L133.715 85.76C129.875 88.064 118.739 95.616 112.979 97.92C101.971 96.384 96.467 87.296 96.723 78.08ZM109.395 70.272C115.155 70.272 134.611 48.256 134.611 39.936C134.611 38.016 133.971 36.864 132.435 36.864C122.195 36.864 109.907 55.936 109.395 70.272ZM136.931 91.264L138.339 88.32L143.075 86.656L169.315 6.272L156.387 11.648V10.624L180.963 -7.62939e-06C181.603 0.511993 182.755 1.536 183.011 2.30399L153.571 86.4H153.827C157.795 76.416 182.243 42.112 188.259 34.688C195.555 36.224 199.395 44.928 199.395 51.584C199.395 72.448 168.163 97.28 158.947 97.792C154.083 98.432 141.283 93.44 136.931 91.264ZM154.595 88.96C158.179 91.008 162.531 92.8 167.267 92.288C173.411 92.288 186.979 63.616 186.979 52.736C186.979 48.384 186.211 45.184 183.651 44.8C182.627 45.184 158.819 77.056 155.107 86.4L154.595 88.96Z" fill="#14CF93"/>
</svg>
